<svg version="1.2" xmlns="http://www.w3.org/2000/svg" viewBox="0 0 30 30" width="30" height="30"><defs><clipPath clipPathUnits="userSpaceOnUse" id="cp1"><path d="m-214-3296h1081v3560h-1081z"/></clipPath></defs><style>.a{fill:#fff}</style><g clip-path="url(#cp1)"><path fill-rule="evenodd" class="a" d="m26.3 21.2c0 0-3.5-3.5-3.7-3.7-0.2-0.2-0.3-0.5-0.3-0.5l-0.7-7.1c0 0-0.7-6.7-6.6-6.7-5.9 0-6.6 6.7-6.6 6.7l-0.7 7.1c0 0-0.1 0.3-0.3 0.5-0.2 0.2-3.7 3.7-3.7 3.7 0 0-0.4 0.5 0.3 0.5 0.4 0 5.8 0 11 0 5.2 0 10.6 0 11 0 0.7 0 0.3-0.5 0.3-0.5zm2.2 1.4c0 0 0 0.8-0.8 0.8-0.5 0-6.6 0-12.7 0-6.1 0-12.2 0-12.6 0-0.9 0-0.9-0.8-0.9-0.8 0 0-0.1-1.6 0.9-2.5 0.9-1 3-3.1 3.3-3.4 0.3-0.3 0.3-0.9 0.3-0.9l0.6-5.9c0 0 0.8-8.4 8.4-8.4 7.6 0 8.4 8.4 8.4 8.4l0.6 5.9c0 0 0 0.6 0.3 0.9 0.3 0.3 2.4 2.4 3.4 3.4 0.9 0.9 0.8 2.5 0.8 2.5zm-16.9 2.5h6.8c0 1.9-1.5 3.4-3.4 3.4-1.9 0-3.4-1.5-3.4-3.4z"/></g></svg>