<svg version="1.2" xmlns="http://www.w3.org/2000/svg" viewBox="0 0 117 116" width="117" height="116"><defs><clipPath clipPathUnits="userSpaceOnUse" id="cp1"><path d="m-482-1027h1081v2171h-1081z"/></clipPath></defs><style>.a{fill:#212121}</style><g clip-path="url(#cp1)"><path fill-rule="evenodd" class="a" d="m58.3 8.2c-27.4 0-49.7 22.4-49.7 49.8 0 27.5 22.3 49.9 49.7 49.9 27.5 0 49.8-22.4 49.8-49.9 0-27.4-22.3-49.8-49.8-49.8zm0-7.1c31.5 0 56.9 25.5 56.9 56.9 0 31.4-25.4 56.9-56.9 56.9-31.4 0-56.8-25.5-56.8-56.9 0-31.4 25.4-56.9 56.8-56.9zm-8.1 77.3c-1.4 1.4-3.6 1.4-5 0l-17.6-17.6c-1.4-1.4-1.4-3.7 0-5 1.4-1.4 3.6-1.4 5 0l15.1 15 33.3-33.6c1.4-1.4 3.7-1.4 5.1 0 1.4 1.4 1.4 3.6 0 5l-35.4 35.6q-0.2 0.3-0.5 0.6z"/></g></svg>