<svg width="25" height="19" viewBox="0 0 25 19" fill="none" xmlns="http://www.w3.org/2000/svg">
<path d="M22.2881 1.28613C22.8433 0.730942 23.7437 0.730942 24.2988 1.28613C24.8535 1.84113 24.8535 2.74059 24.2988 3.2959L10.5576 17.1211C10.493 17.3494 10.372 17.5654 10.1924 17.7451C9.80473 18.1329 9.25041 18.253 8.75977 18.1055C8.46907 18.0621 8.18863 17.9308 7.96484 17.707C7.82796 17.5701 7.72563 17.4117 7.65625 17.2432L1.03809 10.626C0.476513 10.0643 0.476655 9.15326 1.03809 8.5918C1.59969 8.02988 2.5102 8.02998 3.07227 8.5918L9.06738 14.5859L22.2881 1.28613Z" fill="#212121"/>
</svg>
