<svg width="57" height="58" viewBox="0 0 57 58" fill="none" xmlns="http://www.w3.org/2000/svg">
<path fill-rule="evenodd" clip-rule="evenodd" d="M28.4381 0.634766C44.1361 0.634766 56.8622 13.3498 56.8622 29.0346C56.8622 44.7195 44.1361 57.4345 28.4381 57.4345C12.7398 57.4345 0.0136719 44.7195 0.0136719 29.0346C0.0136719 13.3498 12.7398 0.634766 28.4381 0.634766Z" fill="black"/>
<path d="M40.2852 18.6507C40.979 17.9576 42.1042 17.9575 42.7979 18.6507C43.4915 19.3437 43.4913 20.4675 42.7979 21.1605L25.628 38.4192C25.5472 38.7047 25.3958 38.9748 25.1709 39.1995C24.6867 39.6833 23.9948 39.8325 23.3819 39.6487C23.0188 39.5945 22.6692 39.4299 22.3897 39.1507C22.2195 38.9806 22.0906 38.7847 22.004 38.5755L13.7334 30.3118C13.0316 29.6106 13.0316 28.4729 13.7334 27.7718C14.4353 27.0707 15.5736 27.0706 16.2754 27.7718L23.7666 35.2562L40.2852 18.6507Z" fill="#E7B032"/>
</svg>
