<svg version="1.2" xmlns="http://www.w3.org/2000/svg" viewBox="0 0 43 43" width="43" height="43"><defs><clipPath clipPathUnits="userSpaceOnUse" id="cp1"><path d="m-827-1144h1081v2171h-1081z"/></clipPath></defs><style>.a{fill:#e7b032}</style><g clip-path="url(#cp1)"><path fill-rule="evenodd" class="a" d="m21 4.5c-9.6 0-17.5 7.9-17.5 17.5 0 9.6 7.9 17.5 17.5 17.5 9.6 0 17.5-7.9 17.5-17.5 0-9.6-7.9-17.5-17.5-17.5zm0-2.5c11 0 20 9 20 20 0 11-9 20-20 20-11 0-20-9-20-20 0-11 9-20 20-20zm0 6.2c0.7 0 1.3 0.6 1.3 1.3v12l5.9 5.9c0.4 0.5 0.4 1.3 0 1.8-0.5 0.4-1.3 0.4-1.8 0l-6.2-6.2q-0.1-0.1-0.1-0.1c-0.2-0.3-0.3-0.6-0.3-0.9v-12.5c0-0.7 0.5-1.3 1.2-1.3z"/></g></svg>