<svg version="1.2" xmlns="http://www.w3.org/2000/svg" viewBox="0 0 44 44" width="44" height="44"><defs><clipPath clipPathUnits="userSpaceOnUse" id="cp1"><path d="m-963-131h1081v2171h-1081z"/></clipPath></defs><style>.a{fill:#fff}</style><g clip-path="url(#cp1)"><path class="a" d="m7.7 2.9l33.3 33.3c1.3 1.4 1.3 3.5 0 4.8-1.3 1.3-3.4 1.3-4.8 0l-33.3-33.3c-1.3-1.3-1.3-3.4 0-4.8 1.4-1.3 3.5-1.3 4.8 0zm33.3 4.8l-33.3 33.3c-1.3 1.3-3.4 1.3-4.8 0-1.3-1.3-1.3-3.4 0-4.8l33.3-33.3c1.4-1.3 3.5-1.3 4.8 0 1.3 1.4 1.3 3.5 0 4.8z"/></g></svg>