<svg version="1.2" xmlns="http://www.w3.org/2000/svg" viewBox="0 0 30 30" width="30" height="30"><defs><clipPath clipPathUnits="userSpaceOnUse" id="cp1"><path d="m-888-948h1081v2172h-1081z"/></clipPath></defs><style></style><g clip-path="url(#cp1)"><path  d="m5.7 2.6l21.6 21.6c0.9 0.9 0.9 2.3 0 3.1-0.8 0.9-2.2 0.9-3.1 0l-21.6-21.6c-0.9-0.9-0.9-2.2 0-3.1 0.9-0.9 2.2-0.9 3.1 0zm21.6 3.1l-21.6 21.6c-0.9 0.9-2.2 0.9-3.1 0-0.9-0.8-0.9-2.2 0-3.1l21.6-21.6c0.9-0.9 2.3-0.9 3.1 0 0.9 0.9 0.9 2.2 0 3.1z"/></g></svg>