<svg version="1.2" xmlns="http://www.w3.org/2000/svg" viewBox="0 0 42 52" width="42" height="52"><defs><clipPath clipPathUnits="userSpaceOnUse" id="cp1"><path d="m-963-129h1081v2172h-1081z"/></clipPath></defs><style>.a{fill:#fff}</style><g clip-path="url(#cp1)"><path class="a" d="m27.1 12.1c-0.8 0-1.5-0.7-1.5-1.5v-5.6c0-0.3-0.2-0.5-0.5-0.5h-8.2c-0.3 0-0.5 0.2-0.5 0.5v5.2c0 0.9-0.7 1.5-1.5 1.5-0.9 0-1.6-0.6-1.6-1.5v-5.2c0-2 1.6-3.5 3.6-3.5h8.2c2 0 3.6 1.5 3.6 3.5v5.6c0 0.8-0.7 1.5-1.6 1.5zm3.5 38.6h-19.2c-1.6 0-3-1.3-3.2-3l-3.7-36.6c0-0.8 0.6-1.6 1.4-1.7 0.9-0.1 1.6 0.5 1.7 1.4l3.7 36.6c0 0.1 0.1 0.2 0.1 0.2h19.2c0 0 0.1-0.1 0.1-0.2l3.7-36.6c0.1-0.9 0.8-1.5 1.7-1.4 0.8 0.1 1.4 0.9 1.4 1.7l-3.7 36.6c-0.2 1.7-1.6 3-3.2 3zm8.9-38.5h-37c-0.8 0-1.5-0.7-1.5-1.5 0-0.9 0.7-1.5 1.5-1.5h37c0.8 0 1.5 0.6 1.5 1.5 0 0.8-0.7 1.5-1.5 1.5z"/></g></svg>