<svg version="1.2" xmlns="http://www.w3.org/2000/svg" viewBox="0 0 71 60" width="71" height="60"><defs><clipPath clipPathUnits="userSpaceOnUse" id="cp1"><path d="m-506-1700h1081v2172h-1081z"/></clipPath></defs><style>.a{fill:#e7b032}</style><g clip-path="url(#cp1)"><path class="a" d="m21.6 5.2c1.9 0 5.5 0.9 11.2 6.5l2.8 2.8 2.8-2.8c4-4 8.2-6.5 11-6.5 3.8 0 6.8 1.3 9.8 4.2 2.7 2.8 4.2 6.4 4.2 10.3 0 3.9-1.5 7.6-4.3 10.4-0.2 0.2-12.2 13.1-22.3 24-0.4 0.5-1 0.5-1.3 0.5-0.2 0-0.8 0-1.2-0.5-2.5-2.7-20.3-22.5-22.3-24.5-2.8-2.8-4.3-6.5-4.3-10.4 0-3.8 1.5-7.5 4.3-10.3 2.7-2.7 5.8-3.7 9.6-3.7m0-4c-4.8 0-9 1.4-12.4 4.9-7.3 7.3-7.3 19 0 26.3 2 2.1 22.2 24.5 22.2 24.5 1.1 1.1 2.6 1.7 4.1 1.7 1.5 0 3-0.6 4.2-1.7 0 0 22-23.8 22.3-24.1 7.2-7.2 7.2-19 0-26.2-3.6-3.6-7.7-5.4-12.6-5.4-4.7 0-9.9 3.7-13.8 7.7-4.1-4-9.1-7.7-14-7.7z"/></g></svg>