<svg version="1.2" xmlns="http://www.w3.org/2000/svg" viewBox="0 0 43 43" width="43" height="43"><defs><clipPath clipPathUnits="userSpaceOnUse" id="cp1"><path d="m-937-477h1081v3560h-1081z"/></clipPath></defs><style></style><g clip-path="url(#cp1)"><path fill-rule="evenodd" d="m19.8 9.2q0 0 0 0c0 0 0-0.1 0-0.1q0 0 0 0 0 0 0 0 0 0 0.1 0 0 0 0 0 0 0 0-0.1 0 0 0 0 0 0-0.1 0 0 0 0-0.1 0 0 0.1 0 0 0 0 0 0 0 0 0 0 0 0 0 0 0 0 0 0.1-0.1 0.2-0.1 0-0.1 0-0.1 0.1 0 0.1 0 0.1 0 0.2 0c0 0 0 0 0 0.1q-0.1 0-0.1 0 0 0.1 0 0.1 0 0 0 0 0 0 0 0c0 0 0.3 0 0.2 0.1q0 0.1 0 0.1-0.1 0.2 0 0.4 0 0 0 0 0 0.1 0 0.1c0 0.1 0 0.1 0 0.1q0 0 0 0 0 0 0 0 0 0 0 0 0 0 0.1 0 0 0 0 0c0 0 0.1 0.2 0.1 0.2q0 0 0 0-0.1 0 0 0.1 0 0 0 0c0 0 0 0.1-0.1 0.1q0 0 0 0c0.1 0.1 0.1 0.1 0.1 0 0.1 0 0.2 0.1 0.2 0.1 0.1 0 0.1 0.1 0.1 0.1q0 0.1 0 0.1-0.1 0-0.1 0.1-0.1 0-0.1 0 0 0 0 0 0 0 0 0 0 0 0 0 0 0.1 0.1 0.1 0 0 0 0 0 0 0 0c0 0.1-0.2 0.1-0.2 0.1q0 0 0 0c0 0 0 0-0.1 0q-0.1 0-0.1 0c-0.1 0-0.1 0-0.1 0 0 0-0.1-0.1-0.1-0.1-0.1 0-0.1 0.1-0.2 0.1-0.1 0-0.1 0-0.2 0 0 0-0.1 0-0.1 0.1q0 0 0 0 0 0 0 0c-0.1-0.1-0.1-0.1-0.2 0q0 0 0 0 0 0-0.1 0 0-0.1 0-0.1 0.1 0 0.1 0 0.1-0.1 0.3-0.2 0 0 0 0 0.1 0 0.2 0 0 0 0 0 0-0.1 0-0.1-0.1 0-0.1 0.1 0 0 0 0 0 0-0.1 0 0 0 0 0 0-0.1-0.1-0.1c0 0-0.1 0-0.2 0 0 0 0-0.1 0-0.1q0 0 0.1 0c0 0 0.1 0 0.2-0.1 0 0 0-0.1 0-0.1q-0.1 0-0.1 0 0 0 0 0 0 0 0 0 0 0 0 0c0 0 0 0 0-0.1q0 0 0 0 0 0 0 0 0-0.1 0.1-0.1c0 0 0.1 0.1 0.2 0q0-0.1 0-0.2 0 0 0 0 0 0 0 0 0 0 0-0.1-0.1 0-0.1 0 0 0 0 0 0 0 0 0c-0.1 0-0.1 0-0.1 0q0 0 0 0 0 0 0 0 0 0 0 0 0-0.1 0-0.1 0 0 0 0c0.1-0.1 0.1-0.1 0.1-0.2q0 0 0 0 0 0-0.1 0 0 0 0 0 0 0.1-0.1 0.1 0 0 0 0 0 0 0 0 0 0 0 0 0 0 0 0 0-0.1 0-0.2zm-1.1 1.1c0 0 0-0.1 0-0.1 0.1-0.1 0.1-0.1 0.2-0.2 0.1-0.1 0-0.1 0-0.1q0 0 0-0.1 0.1 0 0.1-0.1 0 0 0.1 0 0-0.1 0.1-0.1c0 0 0.1-0.2 0.2-0.2 0.2 0 0.4 0.2 0.3 0.3q0 0-0.1 0c0 0 0 0-0.1 0.1 0 0.1 0.1 0.1 0 0.1 0 0 0 0.1 0 0.1 0 0.1-0.1 0.1-0.1 0.2 0 0-0.1 0-0.2 0q-0.2 0.1-0.3 0.1c0 0.1-0.2 0.1-0.2 0zm4.9 4.5c0 0 0-0.1 0-0.1 0.1 0 0.1 0 0.1 0 0 0 0 0 0.1 0 0 0 0 0 0.1 0 0 0 0.1 0 0.1 0q0 0 0.1 0 0 0 0 0c0.1-0.1 0.1-0.1 0.1-0.1q0.1 0 0.1 0 0 0 0 0 0 0 0 0.1c0 0 0 0.1 0 0.1-0.1 0.1 0 0.1 0 0.2 0 0.1-0.1 0.1-0.1 0.1q0 0-0.1 0 0-0.1-0.1-0.1 0 0 0 0c-0.1-0.1-0.3-0.2-0.3-0.2q-0.1 0-0.1 0 0 0 0 0zm15.1 6.6q0-2.7-0.7-5.1-0.1 0-0.1 0c-0.3-0.2-0.6-0.1-0.9 0-0.7 0.4-0.7 0.5-0.9 0.5-0.1 0-0.6 0.3-0.8-0.1-0.1-0.1-0.2-0.4-0.5 0.1 0 0.1-0.4 0-0.5-0.1-0.4-0.2-0.8-0.6-0.9-0.8-0.2-0.1-0.5 0.1-0.3 0.5 0.9 1.3 1.1 1.3 1.3 1.4q0 0 0 0c0.1-0.1 0.1-0.1 0.3-0.1q0.1-0.1 0.2-0.2 0 0 0 0 0.1-0.1 0.2-0.2 0.2 0 0.3 0.1 0 0 0 0c0.2 0.1 0.4 0 0.5 0.1 0.4 0.2 0.3 0.6 0.2 1q0 0 0 0-0.1 0-0.1 0.1c0 0.1 0.1 0.3 0.1 0.4q0 0 0 0-0.1 0.1-0.2 0.1c-0.1 0.1-0.1 0.3-0.2 0.4-0.1 0.2 0 0.5-0.2 0.5-0.1 0-0.4 0.1-0.4 0.3q-0.1 0.4-0.4 0.6-0.2 0.2-0.5 0.4c-0.1 0.1-0.6 0.6-1 0.7q-0.1 0-0.2 0 0 0 0 0c-0.2-0.4-0.3-0.9-0.5-1.4-0.2-0.5-0.9-0.6-1.1-1.2-0.2-0.5-0.2-0.7-0.4-0.8q-0.3-0.1-0.4-0.4c-0.2-0.2-0.4-0.6-0.6-0.7q-0.1-0.2-0.2-0.4c0 0-0.1 0-0.1 0.1 0 0.1 0.1 0.2 0 0.2q-0.1 0.1-0.1 0c-0.2-0.1-0.4-0.4-0.4-0.5q-0.1 0.1 0 0.1c0.3 0.5 1.7 2.6 1.8 2.8 0.2 1.3 1.2 1.6 1.7 2.1q0.2 0.1 0.2 0.3 0.1 0.2 0.2 0.3c0.1 0.1 0.2 0.1 0.7 0 0.1 0 0.2 0 0.3-0.1 0-0.1 0.4-0.2 0.5-0.2 0.1-0.1 0-0.1 0.3-0.2 0.1-0.1 0.2-0.4 0.2 0 0 0.1 0 0.2 0 0.3-0.1 0.5-0.1 0.6-0.1 0.7q-0.1 0.2-0.2 0.4c-0.1 0.7-0.4 1.4-0.9 2q0 0 0 0c-0.2 0.2-0.7 0.7-1.1 1.4-0.2 0.5-0.5 0.9-0.8 1.3-0.1 0.2-0.1 0.2 0 0.4 0 0.2 0.2 0.9 0.2 1.8 0 0.9-0.1 1.1-0.4 1.3-0.5 0.4-0.9 0.6-1.1 0.8-0.3 0.2-0.4 0.5-0.4 0.8q0 0.2-0.1 0.5 0 0 0 0c0 0-0.7 0.4-0.9 0.6q0 0 0 0 0 0 0 0c0.2 0.5-1.8 1.9-2.2 1.9-0.3 0-1 0.1-1.3 0.2-0.2 0.1-0.9-0.1-0.9-0.2q0 0 0-0.1c0.2-0.1-0.3-0.8-0.5-0.9 0-0.1-0.2-0.4-0.3-0.5-0.1-0.3 0.2-0.6 0-0.9q0 0-0.1 0l-0.5-0.9c-0.1-0.1-0.4-0.3-0.4-0.4 0-0.2 0.3-1 0.3-1.1q0.1 0 0.1-0.1 0 0 0.1-0.1c0.1 0 0.3-0.2 0.1-0.6 0-0.1 0 0-0.1-0.5-0.1-0.4-0.5-1.2-0.6-1.3 0 0-0.6-0.3-0.8-0.8q0-0.1 0-0.1c0.3-0.2 0.2-0.4 0.3-1q0 0 0 0 0 0 0 0v-0.1c0-0.1 0-0.2-0.1-0.4q0-0.1-0.1-0.1 0 0 0 0c-0.1 0-0.2 0-0.2-0.1q0 0 0 0-0.1-0.1-0.3 0c-0.3 0.1-0.8 0.2-0.9-0.2-0.1-0.5-0.4-0.6-0.5-0.5-0.7 0-1.3 0.6-2 0.5q0 0-0.1 0c-0.6-0.2-1.2-0.2-1.8-0.3-0.2-0.1-0.5-0.2-0.7-0.3l-0.8-0.9q-0.1-0.1-0.2-0.2c-0.3-0.4-0.4-1.3-0.4-1.5q0 0-0.1 0v-0.2q0 0 0 0c-0.2-0.2-0.3-0.6-0.2-0.9l0.3-1.1q0 0 0-0.1 0.1 0 0.1-0.1c0-0.5-0.1-0.7-0.1-0.8-0.1-0.2-0.1-0.2 0.4-0.9 0.9-1.2 0.9-1.3 1.2-1.3v-0.1c0.4 0.1 1.1-0.4 1.1-0.6 0-0.1 0-0.3 0.1-0.5q0.1-0.1 0.2-0.2l0.8-0.7c0.1-0.1 0.3-0.1 0.5 0q0.2 0 0.3 0c0.2 0.1 0.2 0 0.3 0 0.5-0.2 1-0.3 3.4-0.4q0.1 0 0.2 0.1 0 0 0 0c0.2 0.1 0.1 0.1 0.2 0.4 0.1 0.1 0 0.2-0.2 0.4 0 0 0 0.2 0 0.2 0.1 0 0.2 0 0.4 0.1 0.1 0.1 0.4 0.2 0.6 0.2q0.3 0.1 0.5 0.4c0.1 0.1 1.3 0.8 1.3-0.2 0 0 0-0.2 0.2-0.2 0.4-0.4 0.6 0.1 0.7 0.1 0.2 0 0.2 0 0.4 0q0 0 0 0 0 0 0 0c0.1 0 0.1 0.1 0.5 0.1 0.5 0 1.1 0 1.7-0.1 0.1 0 0.2 0 0.2 0 0.7-0.6 0-1.2 0.1-1.8q0 0 0 0 0 0 0 0c-0.2 0-0.4 0.1-0.5 0.2q-0.1 0.1-0.2 0.1c-0.2 0-0.3-0.1-0.5-0.2 0 0-0.1 0-0.1 0.1q0 0 0 0c-0.1 0.2-0.7 0.1-0.9-0.3q-0.1-0.1-0.3-0.2 0 0 0 0 0.1 0 0.1 0c0.1-0.1-0.1-0.3-0.2-0.4q0-0.1 0.1-0.2 0 0 0 0c0.2 0 0.2-0.1 0.2-0.1q-0.1 0.1-0.2 0.1-0.1 0-0.1 0-0.2-0.1-0.3-0.1c-0.2 0-0.3 0-0.3 0.1 0 0.1 0 0.1 0 0.1q-0.1 0-0.1 0-0.1 0-0.1 0 0 0 0 0.1c0 0.1 0.3 0.2 0 0.3 0 0-0.1 0.1-0.1 0.1-0.1 0-0.2-0.1-0.3-0.1q0 0-0.1 0 0 0 0 0 0 0 0 0c0 0-0.1-0.1-0.1-0.1 0-0.1 0-0.1-0.1-0.1q0 0 0 0-0.1-0.1-0.1-0.2 0 0 0-0.1-0.1-0.3-0.2-0.4-0.1-0.1-0.1-0.1-0.1 0-0.1 0-0.2-0.1-0.2-0.1 0 0 0 0l-0.8-0.5q0-0.1-0.1-0.1-0.1 0-0.1 0-0.1-0.2-0.2-0.1 0 0 0 0c-0.1 0-0.1 0.1-0.1 0.1q0 0.1 0.1 0.1l0.4 0.7q0.1 0.1 0.3 0.1 0.1 0 0.1 0.1 0 0.1 0.1 0.1c0.2 0.1 0.5 0.1 0.6 0.4q0 0 0 0 0 0 0 0 0 0 0 0c0 0 0 0 0 0.1q0 0-0.1 0 0 0 0-0.1 0 0 0 0c0-0.1-0.1-0.1-0.1-0.1-0.1 0-0.2 0-0.2 0.1q0 0 0 0 0 0 0 0c-0.1 0.1 0 0.1 0 0.1 0.1 0 0.1 0.1 0.1 0.2 0 0 0 0-0.1 0 0 0 0 0 0 0.2-0.1 0.1 0 0.1-0.1 0.1-0.1 0-0.1 0-0.1 0-0.1-0.1 0-0.1 0-0.1q0-0.1 0-0.1c0.1-0.1 0-0.2 0-0.3-0.1-0.2-0.1 0-0.2-0.1-0.1-0.1-0.3-0.2-0.3-0.3-0.3-0.3-0.7-0.5-0.9-0.8q-0.1-0.1-0.2-0.2-0.1 0-0.2 0c-0.1 0-0.4 0.1-0.6 0.3-0.3 0.1-0.4-0.2-0.7-0.1-0.2 0.1-0.1 0.4-0.3 0.5-0.2 0.2-0.5 0.2-0.7 0.4q0 0-0.1 0.1c0 0.1-0.1 0.2-0.1 0.2q-0.1 0 0 0.1 0 0.1-0.1 0.2 0 0 0 0c-0.1 0.1 0 0.2-0.1 0.2 0 0.1-0.1 0-0.2 0.1-0.1 0-0.1 0.1-0.3 0.2-0.1 0-0.3-0.1-0.4 0-0.4 0-0.4 0-0.4 0.1 0 0 0 0-0.1 0-0.1 0-0.1-0.2-0.2-0.3-0.1-0.1-0.1-0.1-0.1-0.1-0.1 0.1-0.2 0.1-0.2 0.1q0-0.1-0.1-0.1-0.1 0-0.1 0c0-0.1 0.1-0.3 0.1-0.4q0 0 0-0.1-0.1 0-0.1 0 0 0-0.1 0c0-0.1 0.2-0.3 0.3-0.4q0 0 0-0.1c0.2-0.4 0.2-0.6 0.1-0.7 0-0.1 0.1-0.2 0.1-0.2q0.1 0 0.1 0c0.1-0.1 0.2-0.1 0.3 0 0.2 0 0.4 0.1 0.9 0.2q0.2 0 0.3 0c0.1 0.1 0.2 0 0.3-0.1 0-0.1 0-0.2 0.1-0.3q0-0.2 0.1-0.2 0 0 0-0.1c0 0 0-0.2-0.1-0.2-0.2 0-0.1-0.3-0.2-0.3-0.1-0.1-0.1-0.1-0.4-0.2 0 0 0.1-0.2 0.2-0.2q0 0 0 0 0.2 0.1 0.3 0.1 0.1-0.1 0.1-0.1 0.1-0.1 0.1-0.1c-0.1-0.1 0-0.1 0-0.1 0.1 0.1 0.2 0.1 0.3 0.1q0.1 0 0.1-0.1 0 0 0 0c0.2-0.1 0.3-0.2 0.3-0.2q0.1-0.2 0.3-0.2c0.2-0.1 0.2-0.2 0.4-0.3q0.1-0.1 0.2-0.1 0-0.1 0-0.1 0 0 0 0 0.1-0.1 0.2-0.1 0.1 0 0.2 0 0 0 0 0 0 0 0.1 0c0.1 0 0.3 0 0.3-0.3-0.1-0.3 0-0.6 0.2-0.8q0 0 0 0c0.1 0.1 0.1 0.1 0.1 0.2q0 0.1-0.1 0.2c-0.3 0.4 0.2 0.4 0.2 0.5q0 0 0 0 0 0 0 0.1 0 0 0 0c0.1 0 0.4-0.2 0.4-0.2 0.1 0.1 0.1 0.1 0.1 0.1 0.1 0.1 0.2 0.1 0.3 0.1q0.4-0.2 0.7-0.1c0.1 0 0.4-0.3 0.4-0.4q-0.1-0.2 0-0.3c0-0.1-0.1-0.1 0-0.2q0.1 0 0.1 0 0.1 0 0.2 0 0.1 0 0.1-0.2 0 0 0 0 0 0 0 0-0.1-0.1-0.1-0.2 0-0.1 0.2-0.2c0.2 0 0.3 0.1 0.5-0.1q0 0 0 0c0-0.1 0-0.1 0-0.1-0.2 0-0.4 0-0.6 0.1l-0.2 0.1q0 0 0 0-0.1 0-0.2 0c-0.1 0-0.2-0.2-0.3-0.3q-0.1-0.3 0.1-0.6c0-0.1 0.1-0.2 0.1-0.3q0.1 0 0.1-0.1c-0.1-0.1-0.3-0.2-0.4-0.1-0.2 0-0.1 0.3-0.1 0.4-0.1 0.1-0.3 0.1-0.3 0.3-0.1 0.2-0.1 0.4-0.1 0.5q0.1 0.3 0 0.6c-0.1 0.1 0 0.3-0.1 0.5-0.1 0.2-0.3 0-0.3 0.2-0.1 0.1-0.3 0-0.3-0.1 0-0.2-0.1-0.2-0.1-0.4q-0.1-0.2-0.3-0.2c-0.3-0.1-0.4 0.2-0.7 0.1-0.2-0.1-0.4-0.3-0.4-0.5 0-0.3 0.1-0.5 0.4-0.6q0 0 0 0c0.7-0.4 0.9-0.6 0.9-0.7q0-0.1 0.1-0.1 0 0 0 0 0-0.1 0.1-0.1 0.1-0.1 0.2-0.3c0-0.1 0.1-0.2 0.1-0.2 0 0 0.4-0.4 0.8-0.5q0.3-0.1 0.4-0.1 0.1 0 0.2 0.1 0 0 0.1 0.1c0 0 0.2 0 0.4 0.1 0.2 0.1 0.5 0.1 0.8 0.2 0.1 0 0.1 0.1 0.1 0.2 0 0.1-0.1 0.2-0.2 0.2q-0.1 0-0.1 0.1-0.1 0.1 0 0.2 0.2 0.1 0.3 0.2c0.2 0 0.4 0 0.3-0.1q-0.1 0-0.2 0c-0.1 0-0.1-0.2 0-0.2 0.1 0.1 0.4 0.1 0.2-0.1q0 0 0-0.1 0.1 0 0.1-0.1c0-0.1 0-0.1 0.2 0q0 0 0 0c0.1-0.1 0.1-0.1 0.1-0.1 0-0.1 0-0.1 0-0.1q0.1 0 0.2 0 0-0.1 0-0.1c0-0.1 0-0.3 0.1-0.4 0.1 0 0.1 0 0.1 0 0 0 0.1 0 0.1 0 0.1 0 0.1-0.1 0.2-0.1q0.1-0.1 0.2-0.1 0 0 0 0 0.1 0 0-0.1c0 0-0.2-0.1-0.1-0.2 0 0 0 0 0.1-0.1-1.8-0.7-3.7-1.2-5.6-1.3q-0.5 0.3-1 0.7c-1.2 0.9-3 1.3-3 1.2-0.1 0-0.2 0-0.2 0 0 0-0.1 0-0.1 0q0 0 0 0 0 0-0.1-0.1c0 0-0.1 0.1-0.4 0.3q0 0 0 0 0 0-0.1 0c-0.1 0-0.2 0-0.3 0q-0.1 0-0.2 0.1 0 0 0 0c-0.1-0.1 0.1-0.1 0.1-0.1 0 0 0-0.1-0.1 0q-0.1 0-0.1 0c-0.2 0-0.4 0.1-0.5 0.2q0 0 0 0-0.1 0-0.1 0.1c0 0-0.4 0.2-0.4 0.2q0-0.1 0-0.1-0.1 0.1-0.2 0.2c0 0.1-0.2 0.1-0.3 0.2-0.1 0-0.2 0.1-0.2 0.1q-0.1 0.1-0.1 0.1c-0.1 0-0.1-0.1-0.1-0.1 0 0 0.1-0.1 0.1-0.1q0 0 0-0.1c0 0 0 0 0-0.1 0 0-0.1 0-0.1 0q-0.1 0-0.1 0c0.1-0.2 0.1-0.2 0.3-0.3q0 0 0 0-0.1-0.1 0-0.1c0-0.1 0.2-0.4 0.5-0.4 0.1 0 0 0 0 0 0-0.1-0.1-0.1-0.1-0.1 0.1-0.1 0.3-0.3 0.4-0.3q0.1-0.1 0.2-0.2c0.1 0 0.3-0.1 0.5-0.1 0.2 0 0.7-0.4 0.7-0.4q0 0 0 0c0 0 0-0.1 0-0.1q0 0 0 0 0.1 0 0.2-0.1 0 0 0 0 0 0 0 0-0.2 0-0.2 0.1 0 0 0-0.1 0 0 0 0c0.1-0.1 0.3-0.1 0.4-0.1 0-0.1 0-0.1 0-0.2q-2.5 0.4-4.7 1.6 0.1 0.1 0.1 0.1c0 0.1-0.1 0.1-0.1 0.1q0 0.1 0 0.1c0 0 0.1 0 0.1 0q0.1 0 0.2 0 0 0.1 0 0.2-0.1 0-0.1 0.1-0.1 0.1-0.2 0.2-0.1 0-0.2 0.1c-0.4 0.4-0.4 1.2-0.8 1.3-0.2 0.1-0.3 0-0.6 0.1q-0.1 0.1-0.2 0c-0.1 0-0.2 0-0.2-0.1 0-0.1-0.2-0.2-0.4-0.1q0 0 0 0 0 0 0 0c-0.1 0-0.5 0.1-0.4 0.1 0 0 0.6-0.2 0.5 0.2q-0.1 0-0.1 0 0 0.1-0.1 0.1-0.1 0-0.2 0 0 0 0 0c0 0 0 0 0 0.1 0 0 0.1 0 0 0 0 0.1-0.1 0.1-0.1 0.1q-0.1 0.1-0.1 0.2c-0.1 0.1 0 0.1 0 0.2-0.1 0-0.4 0-0.5 0 0 0-0.2 0-0.3 0-0.1 0.1-0.3 0.1-0.4 0.3-0.2 0.2-0.2 0.2-0.4 0.2 0 0 0-0.2 0-0.3-2.5 2.5-4.2 5.8-4.7 9.5 0.1 0 0.2 0 0.2 0 0.2 0 0.3 0.1 0.4 0.3q0 0.1 0 0.1 0.1 0 0.1 0c0.1-0.1 0.2 0.1 0.2 0.2q0 0.1 0 0.2 0.1 0.2 0 0.3 0 0 0 0c0 0.3 0.4 1.6 0.5 1.6q0 0 0 0.1c0.7 0.7 1.5 2 1.5 2.4-0.2 0.2-0.2 0.2 0 0.4 0.2 0.3 0.2 0.3 0.1 0.5 0.1 0 0.2 0 0.2 0q0.2 0 0.3 0.1 0 0.1 0.1 0.2c0.2 0.1 0.2 0.3 0.2 0.5 0 0 0.2 0 0.5 0.2 0.4 0.3 1.7 1.8 1.8 2.2 0 0.2-0.1 0.4-0.2 0.5-0.1 0.2-0.4 0.6-0.5 0.8 0 0.1-0.2 0.2-0.2 0.2 0 0.1 0.1 0.3 0.2 0.6 0 0.2 0.1 0.9 0.1 1.2-0.1 0.2-0.1 0.2 0 0.4 0 0.1-0.2 0.3-0.3 0.2-0.1-0.1-0.2-0.1-0.2-0.1-0.2 0.3-0.9 0.4-0.7 0.7q0 0.2 0.1 0.3 0.1 0.2 0.1 0.4 0 0-0.2 0c3.2 3.5 7.8 5.7 12.9 5.7 9.7 0 17.5-7.8 17.5-17.5zm-22.7-4.1q0 0 0 0zm11.1-4.3q0 0 0 0 0 0 0 0 0 0 0 0 0 0 0 0 0 0 0 0 0 0 0 0l0.1 0.2c0 0.1 0.2 0.1 0.3 0.2q0 0 0 0 0.1 0 0.2 0c0.1 0 0.1 0 0.2 0q0.1 0 0.1 0 0.1 0 0.1-0.1 0 0 0 0c0 0 0 0 0.1-0.1q0.1 0 0.2-0.1c0.1-0.1 0.2 0 0.3 0 0.1 0 0.4 0.1 0.4 0.1q0 0 0 0c0.2 0.1 0.4 0.1 0.5 0.1q0.1 0 0.1 0 0 0 0 0c0.1 0 0.1-0.1 0.2-0.1 0.1 0.1 0.5 0 0.4-0.3 0-0.2-0.2-0.3-0.3-0.3-0.2-0.1-0.4-0.3-0.5-0.4-0.1 0-0.2 0-0.3 0-0.2-0.1-0.2-0.1-0.2-0.1q0 0 0 0 0.1-0.2 0.1-0.3 0 0 0 0 0 0 0 0c0-0.1-0.1-0.1-0.1-0.1 0-0.1 0.1-0.1 0.1-0.2q0.1 0 0.1-0.1c0 0 0 0 0 0-0.1 0-0.3 0-0.3 0q0 0 0 0 0 0.1 0 0.1 0 0 0 0l-0.4 0.2q0 0 0 0-0.1 0.1-0.1 0.2 0.1 0.1 0.2 0.2 0 0 0 0.1c0 0-0.2 0.2-0.2 0.2q-0.1 0-0.1-0.1 0 0 0 0 0-0.1-0.2-0.2 0 0 0 0c0-0.1 0.1-0.1 0.1-0.1q0-0.1-0.1-0.1 0 0-0.1 0 0 0 0 0-0.1 0-0.1 0 0-0.1 0-0.1 0.1 0 0.1 0-0.1 0-0.1 0-0.1 0-0.1 0-0.1 0-0.3 0c0 0 0 0 0 0.1q-0.1 0.1-0.1 0.1-0.1 0.1-0.1 0.3 0 0-0.1 0 0 0 0 0c0 0 0 0.2 0 0.2 0 0.1 0 0.2 0 0.2 0 0-0.1 0-0.1 0.1q0 0 0 0c0 0 0 0.1 0 0.2zm14.1 8.4c0 11.1-8.9 20-20 20-11 0-20-8.9-20-20 0-11 9-20 20-20 11.1 0 20 9 20 20z"/></g></svg>