<svg version="1.2" xmlns="http://www.w3.org/2000/svg" viewBox="0 0 62 48" width="62" height="48"><defs><clipPath clipPathUnits="userSpaceOnUse" id="cp1"><path d="m-314-1084h1081v2172h-1081z"/></clipPath></defs><style></style><g clip-path="url(#cp1)"><path fill-rule="evenodd" d="m61 12.3v30c0 2-1.7 3.7-3.7 3.7h-45c-2.1 0-3.8-1.7-3.8-3.7v-30c0-2.1 1.7-3.8 3.8-3.8h45c2 0 3.7 1.7 3.7 3.8zm-3.7 0h-45v30h45zm-52.6-7.6v33.8c-2 0-3.7-1.7-3.7-3.8v-30c0-2 1.7-3.7 3.7-3.7h45c2.1 0 3.8 1.7 3.8 3.7zm11.2 33.8v-22.5h37.6v22.5zm18.7-3.8c4.1 0 7.5-3.3 7.5-7.5 0-4.1-3.4-7.5-7.5-7.5-4.1 0-7.5 3.4-7.5 7.5 0 4.2 3.4 7.5 7.5 7.5zm15-15h-6.7c1.8 2 3 4.7 3 7.5 0 2.9-1.2 5.6-3 7.5h6.7zm-30 15h6.7c-1.8-1.9-2.9-4.6-2.9-7.5 0-2.8 1.1-5.5 2.9-7.5h-6.7z"/></g></svg>