<svg version="1.2" xmlns="http://www.w3.org/2000/svg" viewBox="0 0 63 48" width="63" height="48"><defs><clipPath clipPathUnits="userSpaceOnUse" id="cp1"><path d="m-708-1084h1081v2172h-1081z"/></clipPath></defs><style></style><g clip-path="url(#cp1)"><path fill-rule="evenodd" d="m62 4.7v37.6c0 2-1.7 3.7-3.7 3.7h-52.6c-2 0-3.7-1.7-3.7-3.7v-37.6c0-2 1.7-3.7 3.7-3.7h52.6c2 0 3.7 1.7 3.7 3.7zm-3.7 15h-52.6v20.7c0 1 0.9 1.9 1.9 1.9h48.8c1 0 1.9-0.9 1.9-1.9zm0-13.1c0-1.1-0.9-1.9-1.9-1.9h-48.8c-1 0-1.9 0.8-1.9 1.9v5.6h52.6zm-30 24.4h-15v-3.8h15zm11.2 0h-7.5v-3.8h7.5z"/></g></svg>