<svg version="1.2" xmlns="http://www.w3.org/2000/svg" viewBox="0 0 124 95" width="124" height="95"><defs><clipPath clipPathUnits="userSpaceOnUse" id="cp1"><path d="m-478-1039h1081v2172h-1081z"/></clipPath></defs><style></style><g clip-path="url(#cp1)"><path fill-rule="evenodd" d="m123 9.2v76.2c0 4.2-3.4 7.6-7.6 7.6h-106.7c-4.2 0-7.6-3.4-7.6-7.6v-76.2c0-4.2 3.4-7.6 7.6-7.6h106.7c4.2 0 7.6 3.4 7.6 7.6zm-7.6 30.5h-106.7v41.9c0 2.1 1.7 3.8 3.8 3.8h99.1c2.1 0 3.8-1.7 3.8-3.8zm0-26.7c0-2.1-1.7-3.8-3.8-3.8h-99.1c-2.1 0-3.8 1.7-3.8 3.8v11.4h106.7zm-61 49.5h-30.5v-7.6h30.5zm22.9 0h-15.3v-7.6h15.3z"/></g></svg>