<svg version="1.2" xmlns="http://www.w3.org/2000/svg" viewBox="0 0 123 93" width="123" height="93"><defs><clipPath clipPathUnits="userSpaceOnUse" id="cp1"><path d="m-479-1039h1081v2172h-1081z"/></clipPath></defs><style></style><g clip-path="url(#cp1)"><path fill-rule="evenodd" d="m121 24.3v59.9c0 4.2-3.3 7.5-7.5 7.5h-89.8c-4.2 0-7.5-3.3-7.5-7.5v-59.9c0-4.1 3.3-7.5 7.5-7.5h89.8c4.2 0 7.5 3.4 7.5 7.5zm-7.5 0h-89.8v59.9h89.8zm-104.8-14.9v67.3c-4.2 0-7.5-3.3-7.5-7.4v-59.9c0-4.2 3.3-7.5 7.5-7.5h89.8c4.2 0 7.5 3.3 7.5 7.5zm22.5 67.3v-44.9h74.9v44.9zm37.4-7.4c8.3 0 15-6.7 15-15 0-8.3-6.7-15-15-15-8.3 0-15 6.7-15 15 0 8.3 6.7 15 15 15zm30-30h-13.3c3.5 4 5.8 9.2 5.8 15 0 5.8-2.3 11-5.8 15h13.3zm-59.9 29.9h13.3c-3.6-4-5.8-9.2-5.8-15 0-5.7 2.2-11 5.8-14.9h-13.3z"/></g></svg>