<svg version="1.2" xmlns="http://www.w3.org/2000/svg" viewBox="0 0 29 29" width="29" height="29"><defs><clipPath clipPathUnits="userSpaceOnUse" id="cp1"><path d="m-610-480h1081v3560h-1081z"/></clipPath></defs><style></style><g clip-path="url(#cp1)"><path fill-rule="evenodd" d="m9.5 13c1.7 1.7 4.6 1.1 4.6 1.1 0 0 0.6-2.9-1.1-4.6-1.8-1.7-4.6-1.1-4.6-1.1 0 0-0.6 2.8 1.1 4.6zm5.9 1.1c0 0 2.8 0.6 4.6-1.1 1.7-1.8 1.1-4.6 1.1-4.6 0 0-2.9-0.6-4.6 1.1-1.7 1.7-1.1 4.6-1.1 4.6zm-8.8-4.2c0-4.5 3.7-8.2 8.1-8.2 4.5 0 8.2 3.7 8.2 8.2 0 4.4-5.7 11.3-8.2 11.3-2.4 0-8.1-6.9-8.1-11.3zm21.1 15.4v0.8c0 0 0 1.6-1.6 1.6-1.1 0-21.7 0-22.7 0-1.7 0-1.7-1.6-1.7-1.6v-0.8c0-3.7 2.8-6.8 6.4-7.3q0.5 0.9 1.2 1.6-0.1 0-0.2 0c-3.2 0-5.7 2.6-5.7 5.7 0 0 0 0.8 0.8 0.8 0.5 0 20.6 0 21.1 0 0.8 0 0.8-0.8 0.8-0.8 0-3.1-2.5-5.7-5.7-5.7q-0.1 0-0.2 0 0.6-0.7 1.2-1.6c3.6 0.5 6.3 3.6 6.3 7.3z"/></g></svg>