<svg version="1.2" xmlns="http://www.w3.org/2000/svg" viewBox="0 0 44 42" width="44" height="42"><defs><clipPath clipPathUnits="userSpaceOnUse" id="cp1"><path d="m-826-1078h1081v2171h-1081z"/></clipPath></defs><style>.a{fill:#e7b032}</style><g clip-path="url(#cp1)"><path class="a" d="m22 4l4.6 9.5 0.8 1.7 1.8 0.2 10.4 1.6-7.6 7.5-1.3 1.3 0.3 1.8 1.8 10.5-9.1-4.9-1.7-0.9-1.7 0.9-9.1 4.9 1.8-10.5 0.3-1.8-1.3-1.3-7.6-7.5 10.4-1.6 1.8-0.2 0.8-1.7 4.6-9.5m0-2.4c-1.1 0-2.1 0.7-2.6 1.6l-4.5 9.4-10.4 1.6c-1.1 0.1-2 0.9-2.3 1.9-0.4 1-0.1 2.1 0.6 2.8l7.7 7.6-1.8 10.6c-0.2 1.1 0.3 2.1 1.2 2.8 0.5 0.3 1 0.5 1.6 0.5q0.8 0 1.4-0.4l9.1-4.9 9.1 4.9q0.6 0.4 1.4 0.4c0.6 0 1.1-0.2 1.6-0.5 0.9-0.7 1.4-1.7 1.2-2.8l-1.8-10.6 7.7-7.6c0.7-0.7 1-1.8 0.6-2.8-0.3-1-1.2-1.8-2.3-1.9l-10.4-1.6-4.5-9.4c-0.5-0.9-1.5-1.6-2.6-1.6z"/></g></svg>